<?xml version="1.0" encoding="UTF-8"?>
<svg version="1.1" xmlns="http://www.w3.org/2000/svg" width="49" height="55">
<path d="M0 0 C16.17 0 32.34 0 49 0 C49 18.15 49 36.3 49 55 C32.83 55 16.66 55 0 55 C0 36.85 0 18.7 0 0 Z " fill="#FEFEFE" transform="translate(0,0)"/>
<path d="M0 0 C4.18587144 1.7289469 6.17315321 3.86555726 8 8 C8.43701718 11.49613748 8.54510442 13.24513388 6.45703125 16.13671875 C4.4090313 20.16134063 4.89515026 23.40632086 5.3125 27.8125 C5.37373047 28.60076172 5.43496094 29.38902344 5.49804688 30.20117188 C5.65043657 32.13534873 5.82319281 34.06790219 6 36 C2.62537285 35.45276317 0.91765 34.9451 -2 33 C-4.69538019 33.27644925 -6.70202548 33.85101274 -9.125 35.0625 C-11 36 -11 36 -14 36 C-13.83951172 34.24623047 -13.83951172 34.24623047 -13.67578125 32.45703125 C-13.55380909 30.90892312 -13.43276408 29.36074175 -13.3125 27.8125 C-13.23966797 27.04357422 -13.16683594 26.27464844 -13.09179688 25.48242188 C-12.73806786 20.63425365 -13.05097657 18.06607776 -16 14 C-16.59866575 9.98038714 -16.18471519 8.33121345 -14.1875 4.75 C-9.99036031 -0.52640418 -6.32213057 -0.71235274 0 0 Z " fill="#9B43EB" transform="translate(29,10)"/>
<path d="M0 0 C2 1.0625 2 1.0625 3 3 C3.75757576 9.81818182 3.75757576 9.81818182 1.4375 13.4375 C-1.86357636 15.55357459 -4.07466612 16.06886551 -8 16 C-10.98747189 14.02953982 -12.61681046 12.57637321 -13.48046875 9.0234375 C-13.73520387 5.34699012 -13.26149722 3.33504332 -11 0.4375 C-6.72922263 -1.60891416 -4.59345034 -1.11131863 0 0 Z " fill="#FBF7FE" transform="translate(30,14)"/>
<path d="M0 0 C3.3 0 6.6 0 10 0 C10.33 2.97 10.66 5.94 11 9 C9.948125 8.62875 8.89625 8.2575 7.8125 7.875 C3.81367786 6.95723754 2.50871784 7.08615391 -1 9 C-0.67 6.03 -0.34 3.06 0 0 Z " fill="#F5ECFD" transform="translate(20,32)"/>
</svg>
